<svg width="125" height="118" viewBox="0 0 125 118" fill="none" xmlns="http://www.w3.org/2000/svg">
<path d="M62.5 108.167C69.0104 108.167 75.1085 106.999 80.7943 104.664C86.48 102.328 91.428 99.1733 95.638 95.199C99.8481 91.2247 103.19 86.5538 105.664 81.1865C108.138 75.8191 109.375 70.0625 109.375 63.9167H98.9583C98.9583 73.5042 95.421 81.6372 88.3464 88.3156C81.2717 94.9941 72.6563 98.3333 62.5 98.3333C52.3438 98.3333 43.7283 94.9941 36.6536 88.3156C29.579 81.6372 26.0417 73.5042 26.0417 63.9167C26.0417 54.3292 29.579 46.1962 36.6536 39.5177C43.7283 32.8392 52.3438 29.5 62.5 29.5H63.2813L55.2083 37.1208L62.5 44.25L83.3333 24.5833L62.5 4.91667L55.2083 12.0458L63.2813 19.6667H62.5C55.9896 19.6667 49.8915 20.8344 44.2057 23.1698C38.52 25.5052 33.5721 28.6601 29.362 32.6344C25.1519 36.6087 21.8099 41.2795 19.3359 46.6469C16.862 52.0142 15.625 57.7708 15.625 63.9167C15.625 70.0625 16.862 75.8191 19.3359 81.1865C21.8099 86.5538 25.1519 91.2247 29.362 95.199C33.5721 99.1733 38.52 102.328 44.2057 104.664C49.8915 106.999 55.9896 108.167 62.5 108.167Z" fill="white"/>
<path d="M53.5696 52.1818V82H49.9588V55.9673H49.7841L42.5043 60.8011V57.1321L49.9588 52.1818H53.5696ZM71.8711 82.4077C69.6774 82.4077 67.8089 81.8107 66.2656 80.6168C64.7223 79.4132 63.543 77.6709 62.7276 75.3899C61.9123 73.0992 61.5046 70.3329 61.5046 67.0909C61.5046 63.8684 61.9123 61.1166 62.7276 58.8356C63.5527 56.5449 64.7369 54.7977 66.2802 53.5941C67.8332 52.3808 69.6969 51.7741 71.8711 51.7741C74.0453 51.7741 75.9041 52.3808 77.4474 53.5941C79.0005 54.7977 80.1847 56.5449 81 58.8356C81.825 61.1166 82.2376 63.8684 82.2376 67.0909C82.2376 70.3329 81.8299 73.0992 81.0146 75.3899C80.1992 77.6709 79.0199 79.4132 77.4766 80.6168C75.9332 81.8107 74.0647 82.4077 71.8711 82.4077ZM71.8711 79.2045C74.0453 79.2045 75.7343 78.1562 76.9379 76.0597C78.1415 73.9631 78.7433 70.9735 78.7433 67.0909C78.7433 64.509 78.4666 62.3105 77.9134 60.4954C77.3698 58.6803 76.5836 57.2971 75.5547 56.3459C74.5355 55.3946 73.3076 54.919 71.8711 54.919C69.7163 54.919 68.0322 55.9819 66.8189 58.1076C65.6056 60.2236 64.9989 63.218 64.9989 67.0909C64.9989 69.6728 65.2707 71.8665 65.8143 73.6719C66.3578 75.4773 67.1392 76.8507 68.1584 77.7923C69.1873 78.7338 70.4248 79.2045 71.8711 79.2045Z" fill="white"/>
</svg>
