<svg width="125" height="118" viewBox="0 0 125 118" fill="none" xmlns="http://www.w3.org/2000/svg">
<path d="M62.5 108.167C55.9896 108.167 49.8915 106.999 44.2057 104.664C38.52 102.328 33.572 99.1733 29.362 95.199C25.1519 91.2247 21.8099 86.5538 19.3359 81.1865C16.862 75.8191 15.625 70.0625 15.625 63.9167H26.0417C26.0417 73.5042 29.579 81.6372 36.6536 88.3156C43.7283 94.9941 52.3437 98.3333 62.5 98.3333C72.6562 98.3333 81.2717 94.9941 88.3464 88.3156C95.421 81.6372 98.9583 73.5042 98.9583 63.9167C98.9583 54.3292 95.421 46.1962 88.3464 39.5177C81.2717 32.8392 72.6562 29.5 62.5 29.5H61.7187L69.7917 37.1208L62.5 44.25L41.6667 24.5833L62.5 4.91667L69.7917 12.0458L61.7187 19.6667H62.5C69.0104 19.6667 75.1085 20.8344 80.7943 23.1698C86.48 25.5052 91.4279 28.6601 95.638 32.6344C99.8481 36.6087 103.19 41.2795 105.664 46.6469C108.138 52.0142 109.375 57.7708 109.375 63.9167C109.375 70.0625 108.138 75.8191 105.664 81.1865C103.19 86.5538 99.8481 91.2247 95.638 95.199C91.4279 99.1733 86.48 102.328 80.7943 104.664C75.1085 106.999 69.0104 108.167 62.5 108.167Z" fill="white"/>
<path d="M53.5696 52.1818V82H49.9588V55.9673H49.7841L42.5043 60.8011V57.1321L49.9588 52.1818H53.5696ZM71.8711 82.4077C69.6774 82.4077 67.8089 81.8107 66.2656 80.6168C64.7223 79.4132 63.543 77.6709 62.7276 75.3899C61.9123 73.0992 61.5046 70.3329 61.5046 67.0909C61.5046 63.8684 61.9123 61.1166 62.7276 58.8356C63.5527 56.5449 64.7369 54.7977 66.2802 53.5941C67.8332 52.3808 69.6969 51.7741 71.8711 51.7741C74.0453 51.7741 75.9041 52.3808 77.4474 53.5941C79.0005 54.7977 80.1847 56.5449 81 58.8356C81.825 61.1166 82.2376 63.8684 82.2376 67.0909C82.2376 70.3329 81.8299 73.0992 81.0146 75.3899C80.1992 77.6709 79.0199 79.4132 77.4766 80.6168C75.9332 81.8107 74.0647 82.4077 71.8711 82.4077ZM71.8711 79.2045C74.0453 79.2045 75.7343 78.1562 76.9379 76.0597C78.1415 73.9631 78.7433 70.9735 78.7433 67.0909C78.7433 64.509 78.4666 62.3105 77.9134 60.4954C77.3698 58.6803 76.5836 57.2971 75.5547 56.3459C74.5355 55.3946 73.3076 54.919 71.8711 54.919C69.7163 54.919 68.0322 55.9819 66.8189 58.1076C65.6056 60.2236 64.9989 63.218 64.9989 67.0909C64.9989 69.6728 65.2707 71.8665 65.8143 73.6719C66.3578 75.4773 67.1392 76.8507 68.1584 77.7923C69.1873 78.7338 70.4248 79.2045 71.8711 79.2045Z" fill="white"/>
</svg>
